# xmcd
#
# Track frame offsets:
#	150
#	15149
#	33491
#	44442
#	55189
#	66842
#	76410
#	88555
#	102132
#	112010
#	123349
#	133732
#	145601
#	159529
#	171987
#	184590
#	195125
#	210287
#	222247
#	234240
#	245077
#	258203
#	268485
#	278874
#	289829
#	303313
#	317409
#
# Disc length: 4409 seconds
#
# Revision: 1
# Processed by: cddbd v1.5.2PL0 Copyright (c) Steve Scherf et al.
# Submitted via: EZCDAudioConverter 7.1.4.1
#
DISCID=7811371b
DTITLE=Connie Smith - Just for What I Am [CD1]
DYEAR=2012
DGENRE=USA Country
TTITLE0=Family Bible
TTITLE1=The Last Letter
TTITLE2=Heartbreak Avenue
TTITLE3=Walk Through This World with Me
TTITLE4=If the Whole World Stopped Lovin'
TTITLE5=That's All This Old World Needs
TTITLE6=I Love Charley Brown
TTITLE7=There Are Some Things
TTITLE8=The Sunshine of My World
TTITLE9=Run Away Little Tears
TTITLE10=Let Me Help You Work It Out
TTITLE11=Between Each Tear
TTITLE12=Little Things
TTITLE13=What Makes a Man Wander
TTITLE14=The Hurt Goes On
TTITLE15=What Would I Do Without You
TTITLE16=The Deepening Snow
TTITLE17=Natchilly Ain't No Good
TTITLE18=To Chicago with Love
TTITLE19=Just a Little Sunshine in the Rain
TTITLE20=Gentle on My Mind
TTITLE21=You Are Gone
TTITLE22=Sundown of My Mind
TTITLE23=Only Mama That'll Walk the Line
TTITLE24=A Lonely Woman
TTITLE25=Blue Little Girl
TTITLE26=Seattle
EXTD=
EXTT0=
EXTT1=
EXTT2=
EXTT3=
EXTT4=
EXTT5=
EXTT6=
EXTT7=
EXTT8=
EXTT9=
EXTT10=
EXTT11=
EXTT12=
EXTT13=
EXTT14=
EXTT15=
EXTT16=
EXTT17=
EXTT18=
EXTT19=
EXTT20=
EXTT21=
EXTT22=
EXTT23=
EXTT24=
EXTT25=
EXTT26=
PLAYORDER=
